<svg width="28px" height="26px" viewBox="0 0 28 26" version="1.1" xmlns="http://www.w3.org/2000/svg" xmlnsXlink="http://www.w3.org/1999/xlink">
    <g id="Brief" stroke="none" strokeWidth="1" fill="none" fillRule="evenodd">
        <g id="Desktop-HD-My-projects-Copy-64" transform="translate(-816.000000, -587.000000)" fill="#ACACAC" fillRule="nonzero">
            <g id="calendar" transform="translate(816.000000, 587.000000)">
                <path d="M26.90625,2.21236864 L21.5201328,2.21236864 L21.5201328,1.10169492 C21.5201328,0.493228814 21.0304609,0 20.4263828,0 C19.8223047,0 19.3326328,0.493228814 19.3326328,1.10169492 L19.3326328,2.21236864 L8.66736719,2.21236864 L8.66736719,1.10169492 C8.66736719,0.493228814 8.17769531,0 7.57361719,0 C6.96953906,0 6.47986719,0.493228814 6.47986719,1.10169492 L6.47986719,2.21236864 L1.09375,2.21236864 C0.489671875,2.21236864 0,2.70565254 0,3.31406356 L0,24.8983051 C0,25.5067161 0.489671875,26 1.09375,26 L26.90625,26 C27.5103281,26 28,25.5067161 28,24.8983051 L28,3.31406356 C28,2.70565254 27.5103281,2.21236864 26.90625,2.21236864 Z M25.8125,23.7966102 L2.1875,23.7966102 L2.1875,4.41575847 L6.47986719,4.41575847 L6.47986719,5.52648729 C6.47986719,6.13495339 6.96953906,6.6281822 7.57361719,6.6281822 C8.17769531,6.6281822 8.66736719,6.13495339 8.66736719,5.52648729 L8.66736719,4.41575847 L19.3325781,4.41575847 L19.3325781,5.52648729 C19.3325781,6.13495339 19.82225,6.6281822 20.4263281,6.6281822 C21.0304062,6.6281822 21.5200781,6.13495339 21.5200781,5.52648729 L21.5200781,4.41575847 L25.8125,4.41575847 L25.8125,23.7966102 Z" id="Shape"></path>
                <circle id="Oval" cx="14.5" cy="11.5" r="1.5"></circle>
                <circle id="Oval" cx="14.5" cy="18.5" r="1.5"></circle>
                <circle id="Oval" cx="7.5" cy="11.5" r="1.5"></circle>
                <circle id="Oval" cx="20.5" cy="11.5" r="1.5"></circle>
                <circle id="Oval" cx="7.5" cy="18.5" r="1.5"></circle>
                <circle id="Oval" cx="20.5" cy="18.5" r="1.5"></circle>
            </g>
        </g>
    </g>
</svg>