<svg width="40px" height="41px" viewBox="0 0 40 41" version="1.1" xmlns="http://www.w3.org/2000/svg" xmlnsXlink="http://www.w3.org/1999/xlink">
    <g id="Brief" stroke="none" strokeWidth="1" fill="none" fillRule="evenodd">
        <g id="Desktop-HD-My-projects-Copy-47" transform="translate(-527.000000, -251.000000)" fill="#000000" fillRule="nonzero">
            <g id="chat" transform="translate(527.000000, 251.000000)">
                <path d="M37.7912371,22.6965031 C39.2376518,20.4043156 40,17.7655656 40,15.0368937 C40,7.11056558 33.5513685,0.661971831 25.6249939,0.661971831 C22.9699783,0.661971831 20.3759006,1.39173746 18.1233874,2.77236246 C17.7554947,2.99783121 17.6400252,3.47876871 17.8655734,3.84665933 C18.0909654,4.21447183 18.5719057,4.33001871 18.9398766,4.10447183 C20.9466071,2.87454996 23.2583394,2.22447183 25.625072,2.22447183 C32.689879,2.22447183 38.437569,7.97204996 38.437569,15.0368937 C38.437569,17.5991593 37.6838927,20.0718937 36.2578687,22.1877531 C36.068727,22.4683781 36.0848989,22.8311906 36.2795095,23.0917375 L37.1356082,26.2867375 L33.6993381,25.3659562 C33.4742586,25.3056437 33.2340229,25.3488468 33.044178,25.4840031 C30.8693215,27.0315031 28.3038377,27.8493937 25.625072,27.8493937 C24.0990475,27.8493937 22.6064606,27.5828312 21.186921,27.0583781 C20.1876183,23.3783 17.2839294,20.47455 13.6038297,19.4753312 C13.0792954,18.0558 12.8125751,16.5634562 12.8125751,15.0369718 C12.8125751,12.6440031 13.4762508,10.3103312 14.7318832,8.28822183 C14.9594627,7.92165933 14.8468057,7.44001871 14.4802411,7.21236246 C14.1138327,6.98478433 13.632033,7.09736246 13.4043754,7.46400308 C11.994914,9.73384683 11.2499878,12.3525187 11.2499878,15.0369718 C11.2499878,16.4422062 11.4517077,17.82205 11.8493663,19.1525968 C11.4978799,19.1179093 11.1416278,19.0997062 10.781235,19.0997062 C4.83643459,19.0997062 0,23.9361906 0,29.8808781 C0,32.0143937 0.616878615,34.0624406 1.78735422,35.8279093 L0.951255574,38.9486125 C0.878989525,39.2182218 0.956099352,39.5058781 1.15344426,39.7033 C1.35078916,39.9006437 1.63836897,39.977675 1.90805806,39.9054875 L5.10612367,39.0485343 C6.80925865,40.1050968 8.7636451,40.6619718 10.781235,40.6619718 C12.8347627,40.6619718 14.8321963,40.0822843 16.557597,38.9855656 C16.9217398,38.7540812 17.0292404,38.2712687 16.7978328,37.9071281 C16.5663471,37.5429875 16.0833755,37.4354875 15.719389,37.6668937 C14.2448491,38.6041593 12.5374172,39.0994718 10.781235,39.0994718 C8.95309933,39.0994718 7.18613586,38.5652531 5.67151761,37.5544718 C5.48456339,37.4297062 5.2529214,37.391425 5.03565451,37.4497062 L2.81064147,38.0458781 L3.38986361,35.8842375 C3.45025459,35.6588468 3.40673871,35.4182218 3.27119104,35.2283 C2.15329387,33.661425 1.56243103,31.8122843 1.56243103,29.8807218 C1.56243103,24.7975187 5.69800214,20.66205 10.7811569,20.66205 C15.8643117,20.66205 19.9999609,24.7975968 19.9999609,29.8808 C19.9999609,30.9663468 19.8133192,32.0287687 19.4451921,33.0386125 C19.2973787,33.443925 19.506208,33.8923625 19.911601,34.040175 C20.3169159,34.1879093 20.7654342,33.9791593 20.9131694,33.5737687 C21.3440313,32.3919718 21.5624701,31.1494718 21.5624701,29.8808 C21.5624701,29.5204093 21.544345,29.1642375 21.5096573,28.8128312 C22.8402901,29.2104093 24.2202982,29.4118156 25.625072,29.4118156 C28.5059483,29.4118156 31.2704176,28.5683781 33.6443378,26.9687687 L38.0382698,28.1461125 C38.308037,28.2183781 38.5955386,28.1412687 38.7929617,27.943925 C38.9903066,27.7465812 39.0674164,27.458925 38.9951504,27.1892375 L37.7912371,22.6965031 Z" id="Path"></path>
                <path d="M30.2613373,15.6619718 L22.7385888,15.6619718 C22.3306662,15.6619718 22,16.0406993 22,16.507912 C22,19.3498481 24.0187109,21.6619718 26.5,21.6619718 C28.9812891,21.6619718 31,19.3498481 31,16.507912 C31,16.0406993 30.6691861,15.6619718 30.2613373,15.6619718 Z M26.5,19.9700069 C25.0879659,19.9700069 23.8989118,18.8552269 23.5684672,17.3537676 L29.4316067,17.3537676 C29.1010143,18.8552269 27.9119602,19.9700069 26.5,19.9700069 Z" id="Shape"></path>
                <path d="M31.9301538,11.8906216 C31.7940671,11.6645287 31.5047537,11.5942443 31.2840472,11.7334671 L31.2228129,11.7721668 C31.0022004,11.9117261 30.9338283,12.2079593 31.0701967,12.4338118 C31.1589959,12.5810149 31.3127391,12.6619718 31.4700981,12.6619718 C31.5542953,12.6619718 31.6395725,12.6388001 31.7164911,12.5901009 L31.7766453,12.5520743 C31.9974458,12.4128033 32.0661935,12.1166664 31.9301538,11.8906216 Z" id="Path"></path>
                <path d="M22.9301545,11.8905861 C22.7940694,11.6645308 22.5047123,11.5942432 22.2840552,11.7334724 L22.2228216,11.7721739 C22.0021645,11.9117397 21.9338402,12.2079864 22.0702071,12.4338493 C22.1590053,12.5810112 22.3127468,12.6619718 22.470104,12.6619718 C22.5543003,12.6619718 22.6395766,12.638799 22.7164943,12.5900976 L22.7766478,12.5520692 C22.9974458,12.4127919 23.0661927,12.1166413 22.9301545,11.8905861 Z" id="Path"></path>
                <path d="M7.8535,28.8084718 C7.7605,28.7154718 7.6315,28.6619718 7.5,28.6619718 C7.3685,28.6619718 7.23955,28.7154718 7.1465,28.8084718 C7.0535,28.9014718 7,29.0304718 7,29.1619718 C7,29.2934718 7.0535,29.4224718 7.1465,29.5154718 C7.2395,29.6084718 7.3685,29.6619718 7.5,29.6619718 C7.6315,29.6619718 7.7605,29.6084718 7.8535,29.5154718 C7.9465,29.4224718 8,29.2934718 8,29.1619718 C8,29.0304718 7.9465,28.9014718 7.8535,28.8084718 Z" id="Path"></path>
                <path d="M11.8535,28.8084718 C11.7605,28.7154718 11.6315,28.6619718 11.5,28.6619718 C11.3685,28.6619718 11.23955,28.7154718 11.1465,28.8084718 C11.0535,28.9014718 11,29.0304718 11,29.1619718 C11,29.2934718 11.0535,29.4224718 11.1465,29.5154718 C11.2395,29.6084718 11.3685,29.6619718 11.5,29.6619718 C11.6315,29.6619718 11.7605,29.6084718 11.8535,29.5154718 C11.9465,29.4224718 12,29.2934718 12,29.1619718 C12,29.0304718 11.9465,28.9014718 11.8535,28.8084718 Z" id="Path"></path>
                <path d="M16.8535,28.8084718 C16.7605,28.7154718 16.6315,28.6619718 16.5,28.6619718 C16.3685,28.6619718 16.23955,28.7154718 16.1465,28.8084718 C16.0535,28.9014718 16,29.0304718 16,29.1619718 C16,29.2934718 16.0535,29.4224718 16.1465,29.5154718 C16.2395,29.6084718 16.3685,29.6619718 16.5,29.6619718 C16.6315,29.6619718 16.7605,29.6084718 16.8535,29.5154718 C16.9465,29.4224718 17,29.2934718 17,29.1619718 C17,29.0304718 16.9465,28.9014718 16.8535,28.8084718 Z" id="Path"></path>
                <path d="M19.8535,35.8084718 C19.7605,35.7154718 19.6315,35.6619718 19.5,35.6619718 C19.368,35.6619718 19.2395,35.7154718 19.1465,35.8084718 C19.0535,35.9014718 19,36.0304718 19,36.1619718 C19,36.2934718 19.0535,36.4224718 19.1465,36.5154718 C19.2395,36.6084718 19.368,36.6619718 19.5,36.6619718 C19.6315,36.6619718 19.7605,36.6084718 19.8535,36.5154718 C19.9465,36.4224718 20,36.2934718 20,36.1619718 C20,36.0304718 19.9465,35.9014718 19.8535,35.8084718 Z" id="Path"></path>
                <path d="M16.8535,4.80804487 C16.7605,4.71499834 16.6315,4.66197183 16.5,4.66197183 C16.368,4.66197183 16.2395,4.71499834 16.1465,4.80804487 C16.053,4.90159164 16,5.03015592 16,5.16222196 C16,5.29378774 16.053,5.42285227 16.1465,5.51589879 C16.2395,5.60894532 16.36795,5.66197183 16.5,5.66197183 C16.6315,5.66197183 16.7605,5.60894532 16.8535,5.51589879 C16.9465,5.42285227 17,5.29378774 17,5.16222196 C17,5.03015592 16.9465,4.90159164 16.8535,4.80804487 Z" id="Path"></path>
            </g>
        </g>
    </g>
</svg>