<svg width="53px" height="51px" viewBox="0 0 53 51" version="1.1" xmlns="http://www.w3.org/2000/svg" xmlnsXlink="http://www.w3.org/1999/xlink">
    <g id="Brief" stroke="none" strokeWidth="1" fill="none" fillRule="evenodd">
        <g id="Desktop-HD-My-projects-Copy-47" transform="translate(-1284.000000, -65.000000)">
            <g id="Group-10" transform="translate(1284.000000, 65.000000)">
                <path d="M35.3124788,26.5515494 C34.7094297,25.9477675 33.7356229,25.9477675 33.1325738,26.5515494 L29.5767004,30.1329764 L22.9442236,23.4528364 C22.3411745,22.8490545 21.3673677,22.8490545 20.7643186,23.4528364 L9.94209534,34.3528318 C9.34436076,34.9669297 9.35392683,35.9527954 9.96364316,36.5548255 C10.2472434,36.8349164 10.6270841,36.9943289 11.0243177,37 L41.9449556,37 C42.7987517,37.0049369 43.4949492,36.3119113 43.5,35.4518822 C43.5023895,35.0334976 43.3375438,34.6318522 43.0426383,34.3372604 L35.3124788,26.5515494 Z" id="Path-Copy-2" fill="#000000" fill-rule="nonzero"></path>
                <circle id="Oval-Copy" fill="#000000" fill-rule="nonzero" cx="31" cy="17.5" r="4.5"></circle>
                <rect id="Rectangle-Copy-22" stroke="#000000" strokeWidth="2.3625" fill="#000000" x="43.68125" y="1.18125" width="7.6375" height="7.6375"></rect>
                <rect id="Rectangle-Copy-26" stroke="#000000" strokeWidth="2.3625" fill="#000000" x="43.68125" y="42.18125" width="7.6375" height="7.6375"></rect>
                <rect id="Rectangle-Copy-23" stroke="#000000" strokeWidth="2.3625" fill="#000000" x="1.68125" y="1.18125" width="7.6375" height="7.6375"></rect>
                <rect id="Rectangle-Copy-24" stroke="#000000" strokeWidth="2.3625" fill="#000000" x="1.68125" y="42.18125" width="7.6375" height="7.6375"></rect>
                <rect id="Rectangle-Copy-25" stroke="#000000" strokeWidth="2.625" x="5.8125" y="5.3125" width="41.375" height="40.375"></rect>
            </g>
        </g>
    </g>
</svg>