<svg width="59px" height="59px" viewBox="0 0 59 59" version="1.1" xmlns="http://www.w3.org/2000/svg" xmlnsXlink="http://www.w3.org/1999/xlink">
    <g id="Brief" stroke="none" strokeWidth="1" fill="none" fillRule="evenodd">
        <g id="Desktop-HD-My-projects-Copy-47" transform="translate(-98.000000, -61.000000)">
            <g id="Group-2-Copy-2" transform="translate(98.000000, 61.000000)">
                <path d="M46.75,36.375 L36.5,36.375 L36.5,46.625 L3.25,46.625 L3.25,3.625 L46.75,3.625 L46.75,36.375 Z" id="Combined-Shape" fill="#000000"></path>
                <rect id="Rectangle" fill="#F0F0F0" x="16" y="5.875" width="8" height="8"></rect>
                <rect id="Rectangle-Copy-2" fill="#F0F0F0" x="26" y="5.875" width="8" height="8"></rect>
                <rect id="Rectangle-Copy-3" fill="#F0F0F0" x="36.5" y="5.875" width="8" height="8"></rect>
                <rect id="Rectangle-Copy-4" fill="#F0F0F0" x="36.5" y="16.125" width="8" height="8"></rect>
                <rect id="Rectangle-Copy-5" fill="#F0F0F0" x="26" y="16.125" width="8" height="8"></rect>
                <rect id="Rectangle-Copy-6" fill="#F0F0F0" x="16" y="16.125" width="8" height="8"></rect>
                <rect id="Rectangle-Copy-7" fill="#F0F0F0" x="5.5" y="16.125" width="8" height="8"></rect>
                <rect id="Rectangle-Copy-8" fill="#F0F0F0" x="5.5" y="26.125" width="8" height="8"></rect>
                <rect id="Rectangle-Copy-9" fill="#F0F0F0" x="16" y="26.125" width="8" height="8"></rect>
                <rect id="Rectangle-Copy-10" fill="#F0F0F0" x="26" y="26.125" width="8" height="8"></rect>
                <rect id="Rectangle-Copy-11" fill="#F0F0F0" x="36.5" y="26.125" width="8" height="8"></rect>
                <rect id="Rectangle-Copy-13" fill="#F0F0F0" x="26" y="36.375" width="8" height="8"></rect>
                <rect id="Rectangle-Copy-14" fill="#F0F0F0" x="16" y="36.375" width="8" height="8"></rect>
                <rect id="Rectangle-Copy-15" fill="#F0F0F0" x="5.5" y="36.375" width="8" height="8"></rect>
                <rect id="Rectangle-Copy" fill="#F0F0F0" x="5.5" y="5.875" width="8" height="8"></rect>
                <rect id="Rectangle" fill="#000000" x="49.5" y="49.375" width="9.25" height="9.25"></rect>
                <rect id="Rectangle-Copy-19" fill="#000000" x="41.5" y="41.375" width="2.5" height="2.5"></rect>
                <polyline id="Path" stroke="#000000" stroke-width="2.5" points="47.9974268 42.625 53.75 42.625 53.75 53.625 42.75 53.625 42.75 47.7488958"></polyline>
                <rect id="Rectangle" stroke="#000000" stroke-width="2.25" fill="#000000" x="41.875" y="1.25" width="7" height="7"></rect>
                <rect id="Rectangle-Copy-17" stroke="#000000" stroke-width="2.25" fill="#000000" x="1.125" y="1.25" width="7" height="7"></rect>
                <rect id="Rectangle-Copy-18" stroke="#000000" stroke-width="2.25" fill="#000000" x="1.125" y="42" width="7" height="7"></rect>
            </g>
        </g>
    </g>
</svg>